<svg version="1.2" xmlns="http://www.w3.org/2000/svg" viewBox="0 0 256 256" width="256" height="256"><style>.a{fill:#1a1918}.b{fill:#fff}</style><path class="a" d="m255.9 127.9c0 70.4-57.1 127.5-127.6 127.5-70.4 0-127.6-57.1-127.6-127.5 0-70.5 57.2-127.6 127.6-127.6 70.5 0 127.6 57.1 127.6 127.6z"/><path class="b" d="m189.1 178.5l-50.8-122.2c-1.4-3.6-4.3-5.4-7.8-5.4-3.6 0-6.7 1.8-8.1 5.4l-55.8 134h19.1l22.1-55.3 65.8 53.2c2.7 2.2 4.6 3.1 7.1 3.1 4.9 0 9.3-3.7 9.3-9.1 0-0.8-0.3-2.2-0.9-3.7zm-58.6-100.3l33 81.5-49.9-39.3c0 0 16.9-42.2 16.9-42.2z"/></svg>