<svg version="1.2" xmlns="http://www.w3.org/2000/svg" viewBox="0 0 927 1110" width="927" height="1110"><defs><filter x="-50%" y="-50%" width="200%" height="200%" id="f1"> <feGaussianBlur stdDeviation="7.5"/> </filter><filter x="-50%" y="-50%" width="200%" height="200%" id="f2"> <feGaussianBlur stdDeviation="3.3"/> </filter><linearGradient id="P" gradientUnits="userSpaceOnUse"/><radialGradient id="g1" cx="0" cy="0" r="1" href="#P" gradientTransform="matrix(44.006,-1.852,1.852,44.006,372.514,230.233)"><stop stop-color="#fefefc"/><stop offset=".76" stop-color="#fefefc"/><stop offset="1" stop-color="#d4d4d4"/></radialGradient><radialGradient id="g2" cx="0" cy="0" r="1" href="#P" gradientTransform="matrix(58.609,-1.852,1.852,58.609,508.208,230.233)"><stop stop-color="#fefefc"/><stop offset=".76" stop-color="#fefefc"/><stop offset="1" stop-color="#d4d4d4"/></radialGradient><filter x="-50%" y="-50%" width="200%" height="200%" id="f3"> <feGaussianBlur stdDeviation="5"/> </filter><radialGradient id="g3" cx="0" cy="0" r="1" href="#P" gradientTransform="matrix(39.763,-28.898,28.898,39.763,420.431,267.68)"><stop stop-color="#020204"/><stop offset=".73" stop-color="#020204"/><stop offset="1" stop-color="#5c5c5c"/></radialGradient><filter x="-50%" y="-50%" width="200%" height="200%" id="f4"> <feGaussianBlur stdDeviation="7.4"/> </filter><filter x="-50%" y="-50%" width="200%" height="200%" id="f5"> <feGaussianBlur stdDeviation=".9"/> </filter><filter x="-50%" y="-50%" width="200%" height="200%" id="f6"> <feGaussianBlur stdDeviation="1.9"/> </filter><linearGradient id="g4" x2="1" href="#P" gradientTransform="matrix(24.882,29.468,-9.847,8.315,507.419,212.346)"><stop stop-color="#949494" stop-opacity=".39"/><stop offset=".5" stop-color="#949494" stop-opacity="1"/><stop offset="1" stop-color="#949494" stop-opacity=".39"/></linearGradient><clipPath clipPathUnits="userSpaceOnUse" id="cp1"><path d="m480.5 173.79c-10.29 7.08-18.93 16.95-23.15 28.71-5.32 14.82-3.28 31.41 1.85 46.3 5.26 15.25 14.06 29.79 27.34 38.95 6.64 4.57 14.33 7.71 22.34 8.66 8.01 0.95 16.33-0.35 23.48-4.08 8.72-4.54 15.37-12.5 19.5-21.42 4.13-8.92 5.88-18.78 6.43-28.59 0.71-12.5-0.52-25.21-4.63-37.04-4.46-12.85-12.55-24.71-23.97-32.1-5.71-3.7-12.2-6.24-18.93-7.17-6.75-0.93-13.73-0.24-20.07 2.23-3.61 1.4-6.99 3.36-10.19 5.55z"/></clipPath><linearGradient id="g5" x2="1" href="#P" gradientTransform="matrix(79.179,46.303,-33.69,57.61,486.06,164.995)"><stop stop-color="#747474"/><stop offset=".13" stop-color="#8c8c8c"/><stop offset=".25" stop-color="#a4a4a4"/><stop offset=".5" stop-color="#d4d4d4"/><stop offset=".62" stop-color="#d4d4d4"/><stop offset="1" stop-color="#7c7c7c"/></linearGradient><filter x="-50%" y="-50%" width="200%" height="200%" id="f7"> <feGaussianBlur stdDeviation=".5"/> </filter><linearGradient id="g6" x2="1" href="#P" gradientTransform="matrix(52.716,49.767,-12.27,12.997,512.953,144.899)"><stop stop-color="#646464" stop-opacity="0"/><stop offset=".31" stop-color="#646464" stop-opacity=".58"/><stop offset=".47" stop-color="#646464" stop-opacity="1"/><stop offset=".73" stop-color="#646464" stop-opacity=".26"/><stop offset="1" stop-color="#646464" stop-opacity="0"/></linearGradient><linearGradient id="g7" x2="1" href="#P" gradientTransform="matrix(49.637,47.804,-11.003,11.426,360.029,148.988)"><stop stop-color="#646464" stop-opacity="0"/><stop offset=".31" stop-color="#646464" stop-opacity=".58"/><stop offset=".47" stop-color="#646464" stop-opacity="1"/><stop offset=".73" stop-color="#646464" stop-opacity=".26"/><stop offset="1" stop-color="#646464" stop-opacity="0"/></linearGradient><linearGradient id="g8" x2="1" href="#P" gradientTransform="matrix(21.607,38.636,-16.477,9.215,363.074,209.727)"><stop stop-color="#757574" stop-opacity="0"/><stop offset=".26" stop-color="#757574" stop-opacity="1"/><stop offset=".5" stop-color="#757574" stop-opacity="1"/><stop offset="1" stop-color="#757574" stop-opacity="0"/></linearGradient><radialGradient id="g9" cx="0" cy="0" r="1" href="#P" gradientTransform="matrix(107.89,-44.53,44.53,107.89,472.585,312.752)"><stop stop-color="#d2940a"/><stop offset=".75" stop-color="#d89c08"/><stop offset=".87" stop-color="#b67e07"/><stop offset="1" stop-color="#946106"/></radialGradient><filter x="-50%" y="-50%" width="200%" height="200%" id="f8"> <feGaussianBlur stdDeviation="2.8"/> </filter><linearGradient id="g10" x2="1" href="#P" gradientTransform="matrix(209.218,-1.637,.823,105.157,336.433,306.968)"><stop stop-color="#ad780a"/><stop offset=".12" stop-color="#d89e08"/><stop offset=".25" stop-color="#edb80b"/><stop offset=".39" stop-color="#ebc80d"/><stop offset=".53" stop-color="#f5d838"/><stop offset=".77" stop-color="#f6d811"/><stop offset="1" stop-color="#f5cd31"/></linearGradient><filter x="-50%" y="-50%" width="200%" height="200%" id="f9"> <feGaussianBlur stdDeviation="3.1"/> </filter><filter x="-50%" y="-50%" width="200%" height="200%" id="f10"> <feGaussianBlur stdDeviation=".4"/> </filter><radialGradient id="g11" cx="0" cy="0" r="1" href="#P" gradientTransform="matrix(11.965,0,0,11.965,450.58,265.872)"><stop stop-color="#3a2903"/><stop offset=".55" stop-color="#735208"/><stop offset="1" stop-color="#ac8c04"/></radialGradient><radialGradient id="g12" cx="0" cy="0" r="1" href="#P" gradientTransform="matrix(5.686,0,0,5.686,396.694,266.624)"><stop stop-color="#3a2903"/><stop offset=".55" stop-color="#735208"/><stop offset="1" stop-color="#ac8c04"/></radialGradient><filter x="-50%" y="-50%" width="200%" height="200%" id="f11"> <feGaussianBlur stdDeviation="1.3"/> </filter><linearGradient id="g13" x2="1" href="#P" gradientTransform="matrix(.044,15.465,-12.633,.036,545.53,299.348)"><stop stop-color="#f5ce2d"/><stop offset="1" stop-color="#d79b08"/></linearGradient><clipPath clipPathUnits="userSpaceOnUse" id="cp2"><path d="m363.75 173.79c-6.59 0.36-12.9 3.41-17.73 7.92-4.83 4.51-8.23 10.41-10.32 16.68-4.19 12.53-3.25 26.12-2.29 39.3 0.86 11.94 1.74 24.1 6.2 35.2 2.24 5.55 5.38 10.78 9.56 15.05 4.19 4.27 9.46 7.57 15.26 9.02 5.44 1.36 11.25 1.08 16.61-0.6 5.35-1.68 10.23-4.74 14.24-8.66 5.86-5.72 9.79-13.21 12.06-21.08 2.26-7.86 2.9-16.11 2.78-24.3-0.15-10.24-1.48-20.51-4.69-30.24-3.2-9.73-8.31-18.9-15.46-26.25-3.45-3.56-7.39-6.69-11.84-8.88-4.45-2.19-9.43-3.43-14.38-3.16z"/></clipPath><radialGradient id="g14" cx="0" cy="0" r="1" href="#P" gradientTransform="matrix(26.494,-4.362,4.362,26.494,365.65,197.279)"><stop stop-color="#c8c8c8"/><stop offset="1" stop-color="#797978"/></radialGradient><clipPath clipPathUnits="userSpaceOnUse" id="cp3"><path d="m700.35 555.66c22.7 18.24 36.88 45.62 41.27 74.1 6.89 44.56-8.84 89.17-24.3 131.62-3.09 8.46-6.19 17-7.41 25.91-1.23 8.91-0.46 18.33 3.88 26.25 4.91 8.98 14.08 15.28 24.01 18.23 9.76 2.91 20.34 2.82 30.23 0.34 9.88-2.47 19.08-7.28 27.1-13.48 20.67-15.97 33.03-40.69 37.75-66.1 4.72-25.4 2.41-51.6-2.08-77.04-6.12-34.71-16.25-68.68-29.18-101.52-9.5-24.11-20.63-47.83-36.28-68.61-15.25-20.26-34.55-37.37-49.41-57.92-10.31-14.24-18.48-30.11-30.89-42.63-6.21-6.25-13.49-11.61-21.76-14.82-8.27-3.21-17.59-4.16-26.15-1.79-5.67 1.58-10.91 4.59-15.23 8.53-4.32 3.94-7.74 8.8-10.15 14.09-4.83 10.57-5.57 22.64-3.64 34.07 2.49 14.75 9.22 28.5 16.84 41.44 8.57 14.57 18.55 28.6 31.62 39.47 13.57 11.29 30.02 18.79 43.78 29.86z"/></clipPath><filter x="-50%" y="-50%" width="200%" height="200%" id="f12"> <feGaussianBlur stdDeviation="5.1"/> </filter><filter x="-50%" y="-50%" width="200%" height="200%" id="f13"> <feGaussianBlur stdDeviation="2.6"/> </filter><radialGradient id="g15" cx="0" cy="0" r="1" href="#P" gradientTransform="matrix(-81.801,0,0,-81.801,263.737,530.173)"><stop stop-opacity="1"/><stop offset="1" stop-opacity=".25"/></radialGradient><filter x="-50%" y="-50%" width="200%" height="200%" id="f14"> <feGaussianBlur stdDeviation="4.2"/> </filter><radialGradient id="g16" cx="0" cy="0" r="1" href="#P" gradientTransform="matrix(101.464,0,0,101.464,541.235,574.93)"><stop stop-opacity="1"/><stop offset="1" stop-opacity=".25"/></radialGradient><filter x="-50%" y="-50%" width="200%" height="200%" id="f15"> <feGaussianBlur stdDeviation="2.9"/> </filter><radialGradient id="g17" cx="0" cy="0" r="1" href="#P" gradientTransform="matrix(40.173,0,0,40.173,405.692,557.182)"><stop stop-opacity="1"/><stop offset="1" stop-opacity=".25"/></radialGradient><filter x="-50%" y="-50%" width="200%" height="200%" id="f16"> <feGaussianBlur stdDeviation="5.4"/> </filter><filter x="-50%" y="-50%" width="200%" height="200%" id="f17"> <feGaussianBlur stdDeviation="8.3"/> </filter><linearGradient id="g18" x2="1" href="#P" gradientTransform="matrix(14.059,102.186,-102.798,14.143,632.314,920.349)"><stop stop-opacity="1"/><stop offset="1" stop-opacity="0"/></linearGradient><clipPath clipPathUnits="userSpaceOnUse" id="cp4"><path d="m925.97 949.89q-0.94 2.39-2.06 4.69-1.13 2.31-2.44 4.51-1.31 2.21-2.8 4.3-1.48 2.09-3.14 4.05c-9.72 11.54-23.21 19.15-36.66 26.01-22.92 11.68-46.67 21.93-68.23 35.99-14.44 9.42-27.76 20.47-40.23 32.38-10.66 10.19-20.76 21.07-32.71 29.7-12.07 8.71-26.01 15.02-40.71 17.23-17.9 2.68-36.39-0.79-52.98-8.02-11.62-5.06-22.8-12.31-29.49-23.07-6.72-10.81-8.26-24.04-8.27-36.77-0.03-22.5 4.14-44.78 8.07-66.94 3.26-18.42 6.37-36.88 8.37-55.48 3.64-33.82 3.62-67.98 1.18-101.91-0.4-5.69-0.87-11.43-0.03-17.06 0.86-5.63 3.17-11.25 7.49-14.96 3.99-3.43 9.34-4.95 14.6-5.24 5.25-0.29 10.49 0.54 15.7 1.3 12.27 1.79 24.64 3.21 36.63 6.36 7.57 1.99 14.94 4.67 22.5 6.71 12.6 3.4 25.8 5.04 38.77 3.52 13.96-1.63 27.52-6.87 41.58-6.53 5.76 0.14 11.48 1.22 16.98 2.96 5.62 1.77 11.15 4.3 15.28 8.5 3.13 3.19 5.32 7.21 6.96 11.37 2.44 6.2 3.76 12.8 4.32 19.45 0.5 5.88 0.42 11.83 1.53 17.63 1.84 9.53 6.85 18.23 13.08 25.68 6.22 7.46 13.66 13.78 21.09 20.04 7.41 6.22 14.86 12.42 22.85 17.88 3.75 2.56 7.61 4.96 11.17 7.78 3.56 2.82 6.84 6.1 9.07 10.06q1.12 2.02 1.86 4.22 0.74 2.19 1.06 4.49 0.33 2.29 0.23 4.6-0.1 2.31-0.62 4.57z"/></clipPath><linearGradient id="g19" x2="1" href="#P" gradientTransform="matrix(178.113,-288.782,275.93,170.186,651.971,1096.832)"><stop stop-color="#3e2a06"/><stop offset="1" stop-color="#ad780a"/></linearGradient><clipPath clipPathUnits="userSpaceOnUse" id="cp5"><path d="m925.97 949.89q-0.94 2.39-2.06 4.69-1.13 2.31-2.44 4.51-1.31 2.21-2.8 4.3-1.48 2.09-3.14 4.05c-9.72 11.54-23.21 19.15-36.66 26.01-22.92 11.68-46.67 21.93-68.23 35.99-14.44 9.42-27.76 20.47-40.23 32.38-10.66 10.19-20.76 21.07-32.71 29.7-12.07 8.71-26.01 15.02-40.71 17.23-17.9 2.68-36.39-0.79-52.98-8.02-11.62-5.06-22.8-12.31-29.49-23.07-6.72-10.81-8.26-24.04-8.27-36.77-0.03-22.5 4.14-44.78 8.07-66.94 3.26-18.42 6.37-36.88 8.37-55.48 3.64-33.82 3.62-67.98 1.18-101.91-0.4-5.69-0.87-11.43-0.03-17.06 0.86-5.63 3.17-11.25 7.49-14.96 3.99-3.43 9.34-4.95 14.6-5.24 5.25-0.29 10.49 0.54 15.7 1.3 12.27 1.79 24.64 3.21 36.63 6.36 7.57 1.99 14.94 4.67 22.5 6.71 12.6 3.4 25.8 5.04 38.77 3.52 13.96-1.63 27.52-6.87 41.58-6.53 5.76 0.14 11.48 1.22 16.98 2.96 5.62 1.77 11.15 4.3 15.28 8.5 3.13 3.19 5.32 7.21 6.96 11.37 2.44 6.2 3.76 12.8 4.32 19.45 0.5 5.88 0.42 11.83 1.53 17.63 1.84 9.53 6.85 18.23 13.08 25.68 6.22 7.46 13.66 13.78 21.09 20.04 7.41 6.22 14.86 12.42 22.85 17.88 3.75 2.56 7.61 4.96 11.17 7.78 3.56 2.82 6.84 6.1 9.07 10.06q1.12 2.02 1.86 4.22 0.74 2.19 1.06 4.49 0.33 2.29 0.23 4.6-0.1 2.31-0.62 4.57z"/></clipPath><filter x="-50%" y="-50%" width="200%" height="200%" id="f18"> <feGaussianBlur stdDeviation="17.7"/> </filter><clipPath clipPathUnits="userSpaceOnUse" id="cp6"><path d="m925.96 949.88q-0.96 2.41-2.1 4.72-1.14 2.31-2.45 4.52-1.32 2.2-2.79 4.28-1.47 2.09-3.09 4.04c-9.84 11.81-23.32 19.27-36.66 26-22.95 11.57-46.57 21.82-68.23 35.99-14.32 9.38-27.68 20.41-40.23 32.39-10.69 10.19-20.87 21.12-32.72 29.7-12.2 8.83-26.15 15.06-40.71 17.22-17.86 2.66-36.21-0.84-52.97-8.02-11.47-4.91-22.72-11.95-29.49-23.07-6.52-10.69-8.19-23.97-8.28-36.76-0.14-22.54 4.09-44.82 8.07-66.95 3.31-18.4 6.47-36.85 8.38-55.47 3.46-33.81 2.79-67.95 1.18-101.92-0.27-5.7-0.56-11.46 0.33-17.08 0.91-5.63 3.12-11.2 7.13-14.94 3.98-3.71 9.35-5.29 14.61-5.53 5.26-0.24 10.48 0.75 15.68 1.6 12.24 1.99 24.61 3.24 36.63 6.35 7.57 1.97 14.95 4.66 22.5 6.71 12.64 3.44 25.81 5.06 38.77 3.53 13.95-1.65 27.55-6.89 41.58-6.54 5.75 0.15 11.46 1.24 16.99 2.97 5.56 1.73 11.08 4.2 15.27 8.5 3.07 3.15 5.29 7.16 6.96 11.36 2.44 6.16 3.75 12.79 4.32 19.45 0.51 5.88 0.45 11.84 1.54 17.63 1.85 9.81 6.94 18.63 13.19 26.04 6.24 7.4 13.65 13.54 20.98 19.68 7.43 6.23 14.86 12.51 22.85 17.89 3.73 2.51 7.59 4.83 11.15 7.63 3.56 2.79 6.86 6.11 9.08 10.2q1.08 2.01 1.8 4.2 0.71 2.19 1.04 4.49 0.32 2.29 0.24 4.61-0.07 2.32-0.55 4.58z"/></clipPath><filter x="-50%" y="-50%" width="200%" height="200%" id="f19"> <feGaussianBlur stdDeviation="13.9"/> </filter><filter x="-50%" y="-50%" width="200%" height="200%" id="f20"> <feGaussianBlur stdDeviation="1.8"/> </filter><linearGradient id="g20" x2="1" href="#P" gradientTransform="matrix(-5.238,47.148,-280.74,-31.188,700.59,793.248)"><stop stop-color="#f3cd0c" stop-opacity="1"/><stop offset="1" stop-color="#f3cd0c" stop-opacity="0"/></linearGradient><filter x="-50%" y="-50%" width="200%" height="200%" id="f21"> <feGaussianBlur stdDeviation="8.5"/> </filter><filter x="-50%" y="-50%" width="200%" height="200%" id="f22"> <feGaussianBlur stdDeviation="2.4"/> </filter><filter x="-50%" y="-50%" width="200%" height="200%" id="f23"> <feGaussianBlur stdDeviation="10.5"/> </filter><radialGradient id="g21" cx="0" cy="0" r="1" href="#P" gradientTransform="matrix(81.635,21.874,-21.874,81.635,730.245,845.397)"><stop stop-color="#110800" stop-opacity="1"/><stop offset=".59" stop-color="#a65a00" stop-opacity=".8"/><stop offset="1" stop-color="#ff921e" stop-opacity="0"/></radialGradient><filter x="-50%" y="-50%" width="200%" height="200%" id="f24"> <feGaussianBlur stdDeviation="4.1"/> </filter><radialGradient id="g22" cx="0" cy="0" r="1" href="#P" gradientTransform="matrix(81.635,15.813,-15.813,81.635,730.245,832.88)"><stop stop-color="#110800" stop-opacity="1"/><stop offset=".59" stop-color="#a65a00" stop-opacity=".8"/><stop offset="1" stop-color="#ff921e" stop-opacity="0"/></radialGradient><clipPath clipPathUnits="userSpaceOnUse" id="cp7"><path d="m815.51 777.46c-1.5-4.09-4.14-7.71-7.37-10.63-3.23-2.92-7.04-5.15-11.05-6.86-8.02-3.4-16.75-4.67-25.31-6.28-8.07-1.52-16.08-3.36-24.18-4.73-8.42-1.43-17.11-2.34-25.43-0.46-7.28 1.64-14.02 5.4-19.53 10.44-5.51 5.04-9.81 11.32-12.91 18.11-5.45 11.97-7.17 25.43-6.12 38.54 0.77 9.75 3.24 19.8 9.66 27.19 5.19 5.96 12.55 9.68 20.13 11.93q4.9 1.44 9.97 2.13 5.07 0.69 10.18 0.62 5.12-0.08 10.16-0.91 5.05-0.84 9.91-2.42 8.02-2.71 15.51-6.66 7.48-3.95 14.25-9.03 6.76-5.09 12.63-11.19 5.87-6.1 10.7-13.05c4.22-6.11 7.82-12.77 9.46-20.02 1.24-5.51 1.29-11.4-0.66-16.72z"/></clipPath><filter x="-50%" y="-50%" width="200%" height="200%" id="f25"> <feGaussianBlur stdDeviation="3.8"/> </filter><radialGradient id="g23" cx="0" cy="0" r="1" href="#P" gradientTransform="matrix(27.407,11.929,-11.929,27.407,794.172,768.745)"><stop stop-color="#7c7c7c" stop-opacity="1"/><stop offset="1" stop-color="#7c7c7c" stop-opacity=".33"/></radialGradient><clipPath clipPathUnits="userSpaceOnUse" id="cp8"><path d="m815.51 777.46c-1.5-4.09-4.14-7.71-7.37-10.63-3.23-2.92-7.04-5.15-11.05-6.86-8.02-3.4-16.75-4.67-25.31-6.28-8.07-1.52-16.08-3.36-24.18-4.73-8.42-1.43-17.11-2.34-25.43-0.46-7.28 1.64-14.02 5.4-19.53 10.44-5.51 5.04-9.81 11.32-12.91 18.11-5.45 11.97-7.17 25.43-6.12 38.54 0.77 9.75 3.24 19.8 9.66 27.19 5.19 5.96 12.55 9.68 20.13 11.93q4.9 1.44 9.97 2.13 5.07 0.69 10.18 0.62 5.12-0.08 10.16-0.91 5.05-0.84 9.91-2.42 8.02-2.71 15.51-6.66 7.48-3.95 14.25-9.03 6.76-5.09 12.63-11.19 5.87-6.1 10.7-13.05c4.22-6.11 7.82-12.77 9.46-20.02 1.24-5.51 1.29-11.4-0.66-16.72z"/></clipPath><linearGradient id="g24" x2="1" href="#P" gradientTransform="matrix(11.113,-0.463,.223,5.341,712.947,755.364)"><stop stop-color="#7c7c7c" stop-opacity="1"/><stop offset="1" stop-color="#7c7c7c" stop-opacity=".33"/></linearGradient><clipPath clipPathUnits="userSpaceOnUse" id="cp9"><path d="m303.85 404.38q-14.45 19.12-29.25 37.96-3.94 5.01-7.9 10-3.96 5-7.94 9.97-3.97 4.98-7.97 9.95-3.99 4.96-8 9.91c-13.12 16.2-26.49 32.57-35.01 51.6-7.31 16.35-10.78 34.11-15.8 51.3-5.69 19.53-13.43 38.42-22.11 56.81-8.02 16.99-16.85 33.57-25.71 50.14-6.44 12.05-12.98 24.38-15.21 37.86-1.76 10.66-0.74 21.65 1.98 32.1 2.71 10.46 7.07 20.41 11.99 30.03 20.99 41.03 52.49 76.39 89.8 103.44q6.34 4.61 12.91 8.9 6.57 4.28 13.35 8.24 6.77 3.96 13.73 7.57 6.97 3.61 14.1 6.88c10.31 4.7 21.16 8.9 32.49 9.1 5.67 0.1 11.39-0.84 16.58-3.11 5.18-2.29 9.81-5.95 12.9-10.7 3.79-5.84 5.07-13.11 4.31-20.03-0.76-6.93-3.46-13.53-7.09-19.48-8.85-14.53-22.83-25.04-36.29-35.46-29.04-22.5-57.13-46.23-84.02-71.27-7.59-7.08-15.18-14.37-20.48-23.28-5.16-8.68-7.96-18.58-9.85-28.5-5.18-27.22-3.85-55.87 5.41-81.99 3.62-10.22 8.41-19.97 13.03-29.78 8.01-16.99 15.6-34.31 26.12-49.88 13.08-19.39 30.54-35.84 41.3-56.6 9.09-17.53 12.94-37.26 16.16-56.74q0.93-5.6 1.79-11.21 0.87-5.61 1.68-11.22 0.81-5.62 1.56-11.25 0.75-5.62 1.44-11.26z"/></clipPath><clipPath clipPathUnits="userSpaceOnUse" id="cp10"><path d="m153.89 761.51c5.92-2.46 12.58-2.91 18.89-1.75 6.31 1.16 12.27 3.89 17.57 7.49 10.61 7.21 18.48 17.7 26.02 28.08 17.3 23.83 33.96 48.17 49.06 73.46 12.25 20.51 23.5 41.69 37.65 60.94 9.24 12.57 19.65 24.23 28.94 36.76 9.28 12.53 17.51 26.13 21.63 41.18 5.35 19.54 3.28 41.08-6.02 59.09-6.55 12.67-16.59 23.53-28.8 30.89-12.21 7.36-26.56 11.17-40.8 10.63-22.65-0.85-43.34-12.17-64.4-20.56-42.89-17.08-89.49-22.44-133.71-35.75-13.59-4.09-26.95-8.92-40.64-12.69-6.07-1.67-12.25-3.14-17.99-5.75-5.74-2.6-11.12-6.48-14.31-11.91-2.47-4.2-3.51-9.15-3.44-14.02 0.06-4.88 1.2-9.69 2.86-14.27 3.32-9.17 8.68-17.46 12.3-26.51 5.91-14.78 6.97-31.08 6.17-46.97-0.79-15.9-3.37-31.65-4.46-47.53-0.48-7.09-0.66-14.27 0.69-21.25 1.35-6.98 4.35-13.8 9.47-18.73 4.72-4.54 10.98-7.24 17.4-8.58 6.41-1.33 13.02-1.4 19.57-1.25 6.55 0.15 13.12 0.5 19.65-0.04 6.53-0.53 13.09-2 18.78-5.25 5.41-3.09 9.82-7.68 13.49-12.72 3.67-5.04 6.63-10.54 9.67-15.98 3.03-5.44 6.18-10.86 10.15-15.66 3.98-4.79 8.85-8.97 14.61-11.35z"/></clipPath><linearGradient id="g25" x2="1" href="#P" gradientTransform="matrix(176.805,296.639,-243.185,144.945,100.385,837.518)"><stop stop-color="#b98309"/><stop offset="1" stop-color="#382605"/></linearGradient><filter x="-50%" y="-50%" width="200%" height="200%" id="f26"> <feGaussianBlur stdDeviation="14.5"/> </filter><filter x="-50%" y="-50%" width="200%" height="200%" id="f27"> <feGaussianBlur stdDeviation="8.9"/> </filter><filter x="-50%" y="-50%" width="200%" height="200%" id="f28"> <feGaussianBlur stdDeviation="1.4"/> </filter><linearGradient id="g26" x2="1" href="#P" gradientTransform="matrix(55.661,104.772,-7.429,3.947,277.846,914.133)"><stop stop-color="#ebc40c" stop-opacity="1"/><stop offset="1" stop-color="#ebc40c" stop-opacity="0"/></linearGradient></defs><style>.a{fill:#020204}.b{fill:#fdfdfb}.c{opacity:.26;filter:url(#f1)}.d{opacity:.3;filter:url(#f2)}.e{fill:url(#g1)}.f{fill:url(#g2)}.g{opacity:.3;filter:url(#f3)}.h{fill:url(#g3)}.i{filter:url(#f4);fill:#7c7c7c}.j{filter:url(#f5);fill:#141413}.k{filter:url(#f6);fill:url(#g4)}.l{fill:url(#g5)}.m{filter:url(#f7);fill:url(#g6)}.n{filter:url(#f7);fill:url(#g7)}.o{filter:url(#f6);fill:url(#g8)}.p{fill:url(#g9)}.q{filter:url(#f2);fill:#d9b30d}.r{filter:url(#f8);fill:#604405}.s{fill:url(#g10)}.t{filter:url(#f9);fill:#f6da4a}.u{opacity:.8;filter:url(#f10);fill:url(#g11)}.v{opacity:.8;filter:url(#f10);fill:url(#g12)}.w{filter:url(#f11);fill:url(#g13)}.x{fill:url(#g14)}.y{filter:url(#f12);fill:#838384}.z{opacity:.25;filter:url(#f13);fill:url(#g15)}.A{opacity:.42;filter:url(#f14);fill:url(#g16)}.B{opacity:.2;filter:url(#f15);fill:url(#g17)}.C{opacity:.11;filter:url(#f16)}.D{filter:url(#f2);fill:#838384}.E{opacity:.2;filter:url(#f17);fill:url(#g18)}.F{fill:url(#g19)}.G{filter:url(#f18);fill:#cd8907}.H{filter:url(#f19);fill:#f5c021}.I{filter:url(#f20);fill:url(#g20)}.J{opacity:.75;filter:url(#f21);fill:#7c7c7c}.K{opacity:.25;filter:url(#f22);fill:#7c7c7c}.L{opacity:.35;filter:url(#f23);fill:url(#g21)}.M{opacity:.35;filter:url(#f24);fill:url(#g22)}.N{filter:url(#f25);fill:url(#g23)}.O{filter:url(#f25);fill:url(#g24)}.P{opacity:.95;filter:url(#f14);fill:#7c7c7c}.Q{fill:url(#g25)}.R{filter:url(#f26);fill:#d99a03}.S{filter:url(#f27);fill:#f5bd0c}.T{filter:url(#f28);fill:url(#g26)}</style><path class="a" d="m683.4 393.7c12.1 26.3 25.5 51.9 37.5 78.2 23 50.6 40.5 104.1 47.8 159.3 7.2 55.1 4.1 112-13.2 164.9-19.5 59.7-56.4 112.8-101.7 156.3-53.6 51.4-122.4 91-196.6 93.9-48.4 2-96.5-11.9-139.4-34.4-36-19-68.8-44.2-95-75.3-26.2-31.1-45.7-68.1-54.7-107.8-11.1-48.8-6.1-100.6 10.7-147.8 12-33.7 29.8-65.2 42.5-98.7 13.9-36.6 21.6-75.6 40-110.2 16.6-31.3 41.5-58.1 54.8-91 7.9-19.7 11.3-40.8 16.5-61.3 5.1-20.6 12.2-41.3 26.1-57.3 16.8-19.2 42.1-29.7 67.4-32.6 25.4-2.9 51.1 1 76 6.7q7.4 1.7 14.8 3.6 7.4 1.9 14.7 4 7.3 2.1 14.6 4.5 7.2 2.3 14.4 4.8c16.3 5.8 32.5 12.6 46.7 22.7 19.2 13.7 33.9 33 45.6 53.5 11.7 20.6 20.6 42.5 30.5 64z"/><path class="a" d="m470.4 1046.8c20.4 1.2 40.8 3.2 60.9 6.2 17.8 2.7 35.4 6.2 52.9 10.4 27.3 6.7 54.5 15.1 82.6 15.9 7.4 0.2 14.9-0.1 22.1-1.7 7.2-1.6 14.2-4.6 20-9.2 8.7-6.9 14.1-17.2 16.2-28.1 2-10.8 0.7-22.1-2.4-32.7-6.4-21.1-20-39.2-31.3-58.1-6.4-10.9-12.2-22.2-19.2-32.7-7-10.5-15.4-20.4-26-27.2-14.7-9.5-32.9-12.6-50.3-10.9-17.4 1.8-34.1 8.1-49.6 16.1-21.8 11.3-42.3 26.7-54.2 48.2-4.1 7.5-7.1 15.5-10.6 23.3-3.5 7.7-7.6 15.4-13.6 21.5-6.6 6.8-15.2 11.4-22.1 18-3.4 3.3-6.4 7.1-8.1 11.6-1.8 4.4-2.2 9.4-0.6 13.9 1.1 3.1 3.1 5.8 5.6 7.9 2.4 2.1 5.4 3.7 8.5 4.7 6.1 2.2 12.7 2.5 19.2 2.9z"/><path class="a" d="m409.9 1045.5c-17 0.4-33.8 3.4-50.4 6.9q-6 1.2-11.9 2.5-6 1.3-11.9 2.7-5.9 1.4-11.9 2.8-5.9 1.5-11.8 3c-26.5 7-53 15.3-80.4 15.9-7.2 0.2-14.5-0.2-21.5-1.9-7-1.6-13.8-4.5-19.4-9-8.7-6.8-14.1-17.2-16.2-28-2-10.9-0.7-22.1 2.4-32.7 6.3-21.1 19.8-39.2 30.8-58.2 6.3-10.9 11.8-22.1 18.6-32.7 6.8-10.5 14.9-20.4 25.4-27.2 14.3-9.4 32-12.6 49-10.9 17 1.7 33.3 7.9 48.2 16.1 21.2 11.5 40.5 27.4 52.7 48.2 8.6 14.5 13.5 31.2 23.5 44.8 5.4 7.3 12.2 13.7 16.7 21.6 2.2 3.9 3.9 8.3 4.3 12.8 0.4 4.6-0.6 9.3-3.1 13-1.7 2.5-4.1 4.5-6.7 6-2.6 1.5-5.5 2.5-8.4 3.1-5.9 1.2-12 1.1-18 1.2zm-94.9-707.1c-2.4-28.7-1.8-57.6-2.9-86.4-1-27.6-3.6-55.3-2.6-83 0.9-28.2 5.6-56.7 18.2-82 12.5-25.3 32.9-46.7 57.7-60.1 23.4-12.6 50.3-17.9 76.8-17.7 36 0.4 72.1 11.3 101.3 32.4 18.2 13.3 33.6 30.3 45.7 49.4 10.4 16.2 18.4 33.9 23.5 52.5 10.3 38.1 7.9 78.4 9.9 117.8 1.9 37.4 7.9 74.7 5.8 112.1-0.4 8.1-1.3 16.4-4.9 23.7-3.5 7.1-9.5 12.8-16.4 16.7-6.9 3.9-14.6 6.2-22.4 7.4-15.7 2.4-31.7 0.8-47.5 2.3-22.9 2.1-44.7 10.6-67.4 14.1-27.1 4.2-54.7 1.2-82.1 0.1-10.9-0.4-21.9-0.6-32.8-1.9-10.9-1.4-21.8-4-31.5-9.2-5.9-3.2-11.4-7.3-15.9-12.4-4.4-5.1-7.8-11.1-9.5-17.7-2.6-9.8-1.2-20.2-1.2-30.3 0.1-9.3-1-18.5-1.8-27.8z"/><path class="b" d="m358.1 327.3c-3.9 4.9-6.4 10.7-7.9 16.8-1.6 6-2.1 12.2-2.4 18.4-0.4 12.4 0.3 25.1-3 37.1-3.5 12.8-11.3 23.9-19.1 34.7-13.3 18.8-26.8 38-33.4 60q-1.5 5.1-2.5 10.2-1 5.1-1.5 10.3-0.5 5.2-0.4 10.5 0 5.2 0.5 10.4-5.6 8.2-10.8 16.7-5.2 8.5-10.1 17.2-4.8 8.7-9.2 17.6-4.5 9-8.5 18.1c-16.2 36.8-27.4 76-31.3 116.1-4.8 49 1.5 99.5 20.8 144.8 14 32.8 34.9 62.8 61.8 86.1q5.2 4.5 10.6 8.6 5.4 4.1 11.1 7.9 5.6 3.7 11.5 7.1 5.9 3.4 12 6.4c56.3 27.7 126 27.7 181.4-1.8 29-15.4 53.4-38 77-60.8 14.2-13.8 28.3-27.8 39.1-44.4 20.9-31.8 28.1-70.5 32.6-108.3 7.9-66 8.2-135.8-20.8-195.7q-3.7-7.7-8.1-15.1-4.3-7.5-9.2-14.5-5-7-10.4-13.7-5.5-6.6-11.5-12.8-1.6-10.8-3.9-21.5-2.4-10.6-5.5-21.1-3.1-10.5-7-20.7-3.8-10.2-8.4-20.2c-8.7-19.1-19.5-37.3-27.6-56.6-3.4-8-6.3-16.1-10-23.9-3.7-7.8-8.3-15.3-14.6-21.3-6.3-6.1-14.3-10.4-22.7-13.2-8.4-2.7-17.2-4-26-4.4-17.7-0.9-35.4 1.4-53 0.7-14.1-0.6-28.1-3-42.1-2.2-7.1 0.4-14.1 1.7-20.6 4.3-6.5 2.7-12.5 6.7-16.9 12.2z"/><path class="c" d="m349.4 393.2c6.3 18.3 19 33.9 34.1 46.1 5 4.1 10.3 7.8 16.1 10.5 5.9 2.6 12.4 4.1 18.8 3.6 6.3-0.6 12.2-3 17.7-6.1 5.5-3.1 10.6-6.9 15.9-10.2 9.2-5.8 18.9-10.5 28.4-15.7 11.4-6.2 22.5-13.3 32.1-22.1 4.4-4 8.5-8.4 13.4-11.8 4.8-3.5 10.6-6 16.6-5.5 4.4 0.3 8.6 2.2 13 3.1 2.2 0.5 4.4 0.7 6.6 0.4 2.3-0.4 4.4-1.3 6-2.9 1.9-2 2.7-4.8 2.6-7.6-0.1-2.7-1.1-5.4-2.3-7.8-2.6-4.8-6.5-9-8.2-14.2-1.5-4.6-1.2-9.6-1.1-14.5 0.2-4.9 0.1-10-2.2-14.3-1.7-3.3-4.6-5.9-7.8-7.6-3.3-1.8-7-2.7-10.7-3-7.4-0.7-14.8 0.7-22.2 1.1-9.8 0.6-19.7-0.6-29.6 0-12.2 0.7-24.2 4.3-36.5 4.3-14.1 0-28.1-4.6-41.9-2.4-6 1-11.6 3.1-17.3 5-5.7 1.9-11.6 3.6-17.7 3.5-6.8-0.1-13.4-2.4-20.2-2.9-3.4-0.3-6.9 0-10.1 1.2-3.2 1.2-6.1 3.4-7.7 6.4q-0.3 0.7-0.6 1.4-0.2 0.7-0.4 1.4-0.2 0.7-0.3 1.4-0.1 0.7-0.1 1.5c-0.1 1.9 0.2 3.9 0.6 5.8 1 3.8 2.7 7.3 4.2 11 5.1 13.1 6.2 27.6 10.8 40.9z"/><path class="d" d="m331.9 341.1q4.5 2.8 8.9 6 4.3 3.1 8.4 6.6 4.1 3.4 7.9 7.2 3.8 3.7 7.2 7.7c8.6 9.8 15.9 21 27.1 28.2 7.9 5.2 17.4 8.1 27 9 11.3 1 22.7-0.7 33.6-3.6 10.1-2.8 19.9-6.6 28.9-11.7 17-9.7 31.2-23.9 50-30.2 4.1-1.4 8.4-2.4 12.3-4.1 4-1.7 7.7-4.3 9.6-7.9 1.8-3.5 1.7-7.5 2.3-11.4 0.7-4.1 2.1-8 2.9-12.1 0.7-4.1 0.8-8.4-1.1-12.2-1.6-3.1-4.5-5.5-7.8-7.1-3.3-1.6-7-2.3-10.7-2.4-7.5-0.4-14.8 1.4-22.2 2-9.8 0.8-19.7-0.3-29.6-0.1-12.2 0.4-24.3 2.9-36.5 3.5-14 0.6-27.9-1.4-41.9-1.9-6.1-0.2-12.2-0.1-18.1 0.9-6 0.9-11.8 2.8-16.9 5.8-4.9 3-8.8 7.1-13.3 10.6-2.3 1.7-4.6 3.4-7.3 4.6-2.6 1.2-5.4 2-8.4 2.2-1.5 0-3-0.1-4.5 0.1q-0.9 0.2-1.8 0.5-0.9 0.3-1.7 0.7-0.8 0.5-1.5 1.1-0.7 0.6-1.3 1.3-0.5 0.7-0.9 1.5-0.4 0.9-0.6 1.7-0.2 0.9-0.2 1.7 0 0.9 0.2 1.8z"/><path class="e" d="m363.8 173.8c-6.6 0.4-13 3.4-17.8 7.9-4.8 4.5-8.2 10.4-10.3 16.7-4.2 12.5-3.2 26.1-2.3 39.3 0.9 11.9 1.7 24.1 6.2 35.2 2.3 5.5 5.4 10.8 9.6 15 4.2 4.3 9.4 7.6 15.2 9.1 5.5 1.3 11.3 1 16.6-0.6 5.4-1.7 10.3-4.8 14.3-8.7 5.8-5.7 9.8-13.2 12-21.1 2.3-7.8 2.9-16.1 2.8-24.3-0.1-10.2-1.5-20.5-4.7-30.2-3.2-9.7-8.3-18.9-15.4-26.3-3.5-3.5-7.4-6.7-11.9-8.8-4.4-2.2-9.4-3.5-14.3-3.2z"/><path class="f" d="m480.5 173.8c-10.3 7.1-18.9 16.9-23.1 28.7-5.4 14.8-3.3 31.4 1.8 46.3 5.3 15.3 14.1 29.8 27.3 38.9 6.7 4.6 14.4 7.8 22.4 8.7 8 1 16.3-0.3 23.5-4.1 8.7-4.5 15.3-12.5 19.5-21.4 4.1-8.9 5.8-18.8 6.4-28.6 0.7-12.5-0.5-25.2-4.6-37-4.5-12.9-12.6-24.7-24-32.1-5.7-3.7-12.2-6.3-18.9-7.2-6.8-0.9-13.8-0.2-20.1 2.2-3.6 1.4-7 3.4-10.2 5.6z"/><path class="g" d="m361.6 280.4q-2.5 2.1-5 4.2-2.4 2.1-4.8 4.3-2.3 2.2-4.7 4.4-2.3 2.2-4.6 4.5c-3.3 3.4-6.7 7-8.2 11.5-1.3 4-1.1 8.3-1.7 12.5-0.2 1.4-0.6 2.8-0.6 4.3 0 0.7 0.1 1.4 0.3 2.1 0.2 0.7 0.6 1.4 1.1 1.9 0.8 0.9 2 1.4 3.1 1.6 1.2 0.2 2.4 0.3 3.6 0.4 5.4 0.6 10.4 3.2 14.9 6.3 4.4 3.1 8.5 6.6 13.1 9.6 10.1 6.4 22.2 9.2 34.2 9.7 12 0.5 23.9-1.4 35.7-3.7 9.3-1.9 18.6-4.1 27.5-7.6 13.5-5.3 25.8-13.6 37.5-22.3 5.3-4 10.5-8.1 15.3-12.7 1.6-1.5 3.1-3.1 4.9-4.6 1.7-1.4 3.6-2.6 5.8-3.3 3.2-1.1 6.8-0.8 10.2-0.2 2.5 0.4 5.1 1 7.6 0.9q0.5 0 1-0.1 0.5 0 1-0.1 0.4-0.1 0.9-0.3 0.5-0.1 0.9-0.3c1.2-0.5 2.3-1.2 3.1-2.2q0.4-0.5 0.7-1.1 0.3-0.5 0.6-1.1 0.2-0.6 0.3-1.2 0.1-0.7 0.1-1.3 0-0.6-0.1-1.3-0.1-0.6-0.3-1.2-0.2-0.6-0.4-1.2-0.3-0.6-0.6-1.1c-1.7-3-4.7-4.9-7.8-6.3-4.2-1.9-8.8-2.8-13.4-3.9q-5.2-1.3-10.3-2.8-5.1-1.6-10.1-3.4-5.1-1.9-10-4-4.9-2.1-9.7-4.5c-6.4-3.1-12.5-6.6-18.8-10-6.4-3.4-13-6.7-19.9-8.9-15.7-4.7-32.7-3.1-48.1 2.2q-6.4 2.3-12.5 5.3-6.1 3.1-11.7 6.9-5.6 3.9-10.7 8.4-5 4.6-9.4 9.7z"/><path class="h" d="m394.7 260.8c6.6-7.3 11.1-16.3 17.4-23.9 3.1-3.8 6.7-7.2 11-9.7 4.3-2.4 9.2-3.8 14.1-3.4 5.5 0.5 10.6 3.2 14.6 6.9 4 3.8 7 8.5 9.4 13.5 2.2 4.7 4 9.8 7.3 13.9 3.5 4.4 8.4 7.3 12.8 10.8 2.2 1.7 4.3 3.6 6 5.8 1.8 2.2 3.1 4.7 3.7 7.4q0.2 1.1 0.3 2.2 0 1-0.1 2.1 0 1.1-0.3 2.1-0.2 1-0.6 2-0.4 1-0.8 2-0.5 0.9-1.1 1.8-0.6 0.9-1.3 1.7-0.7 0.9-1.4 1.6c-4.1 3.9-9.7 6.1-15.4 6.9-11.2 1.6-22.6-1.8-34-1.5-11.5 0.3-22.7 4.4-34.2 4-5.8-0.2-11.6-1.6-16.3-4.9q-0.9-0.6-1.8-1.3-0.8-0.7-1.5-1.5-0.8-0.8-1.4-1.7-0.7-0.8-1.3-1.7-0.5-1-1-1.9-0.4-1-0.7-2.1-0.3-1-0.5-2.1-0.2-1-0.3-2.1c0-2.7 0.6-5.5 1.7-8 1.1-2.5 2.6-4.8 4.4-7 3.4-4.2 7.7-7.8 11.3-11.9z"/><path class="i" d="m523.1 57.1c-9.5 6.7-5.4 15-1.3 23.4 4.1 8.4-9 32.6-9.1 33.7-0.1 1 25.7-12.3 32.8-20.9 8.3-10.3 29.3 13.8 28.2 10.1 0-6.5-41.1-53-50.6-46.3z"/><path class="a" d="m504.3 204.9q-1.5 0.1-2.9 0.4-1.5 0.3-2.8 0.8-1.4 0.4-2.7 1-1.3 0.7-2.6 1.5-1.2 0.7-2.3 1.6-1.2 1-2.2 2-1.1 1-2 2.1-0.9 1.1-1.8 2.3c-4.4 6.4-6.3 14.3-6.6 22-0.2 5.9 0.4 11.8 2.3 17.3 2 5.5 5.2 10.6 9.7 14.3q1.7 1.4 3.7 2.5 1.9 1.2 4 2 2.1 0.8 4.3 1.3 2.2 0.4 4.4 0.5 2.2 0.1 4.5-0.1 2.2-0.3 4.3-0.9 2.2-0.6 4.2-1.6 2.1-0.9 3.9-2.2c3.9-2.7 7-6.4 9.3-10.6 2.2-4.2 3.6-8.9 4.2-13.6 1.1-8.3-0.2-17-4-24.5-3.8-7.4-10.4-13.6-18.3-16.5-3.4-1.2-7-1.9-10.6-1.6z"/><path class="j" d="m513.5 230.3c-3.2 1.2-8.3 0.5-9.7 3.6-0.8 1.9 0.3 4.9 2.2 5.7 3.9 1.6 9.8-1.3 11.3-5.1 0.7-1.7-0.3-4.3-2-5-0.6-0.2-1.2 0.5-1.8 0.8z"/><path class="k" d="m528.2 238.6c4.3-4.3-3.1-15.7-8.8-20.4-4.2-3.3-16.3-6.9-15.7-3.2 0.5 3.7 5.9 8.4 9.6 12 4.5 4.4 12.9 13.7 14.9 11.6z"/><g clip-path="url(#cp1)"><path class="l" d="m441.6 211.3q3.3-2.8 6.9-5.2 3.6-2.4 7.4-4.4 3.7-2.1 7.7-3.8 4-1.6 8.1-2.9c22.5-7 48.2-4.2 68.1 8.4 6.9 4.4 13 9.8 19.4 14.9 6.4 5 13.2 9.7 20.9 12.4 4.1 1.5 8.5 2.4 12.9 1.9q1.5-0.2 3-0.5 1.4-0.4 2.8-0.9 1.4-0.5 2.7-1.2 1.3-0.7 2.6-1.5 1.2-0.9 2.3-1.9 1.2-1 2.2-2 1-1.1 1.9-2.3 0.9-1.2 1.7-2.5c4.1-6.8 5.4-15.1 4.7-23-1.4-15.8-10.4-29.8-17.9-43.8-2.3-4.4-4.5-8.9-7.4-13-8.6-12.6-22.5-20.9-37-25.7-14.4-4.9-29.8-6.7-44.9-8.6-6.8-0.8-13.6-1.7-20.4-0.9-7.8 0.9-15.1 4.1-22.7 6-3.6 0.9-7.3 1.6-10.8 2.6-3.6 1.1-7.1 2.5-10 4.8-4.3 3.4-6.9 8.5-8.1 13.8-1.1 5.3-0.9 10.9 0 16.2 1.7 10.7 5.7 21.2 5.3 32.1-0.3 7.4-2.6 14.7-2.3 22.2q0.1 3.3 0.9 6.5"/></g><path class="m" d="m516.3 143.3c-1.8 2.2-3.4 4.6-4.7 7.3q3 0.6 5.9 1.6 2.9 0.9 5.8 2.1 2.8 1.2 5.5 2.6 2.6 1.5 5.2 3.2c13.1 8.7 23.1 21.4 30.1 35.6q0.6-0.7 1.2-1.4 0.6-0.7 1.1-1.4 0.6-0.8 1.1-1.5 0.5-0.8 1-1.6c-7.1-14.8-17.2-28.1-30.8-37.1-6.5-4.4-13.8-7.6-21.4-9.4z"/><path class="n" d="m363 150.5c-0.9 0-1.8 0.1-2.7 0.1q-0.8 0.1-1.7 0.1 2 0.2 3.9 0.6 2 0.3 3.9 0.8 1.9 0.5 3.7 1.2 1.9 0.6 3.7 1.4c6.4 2.9 12.1 7.1 17.1 11.7 9.3 8.7 16.2 19.5 20.8 30.8q-0.4-3.2-1.1-6.4-0.7-3.1-1.6-6.2-1-3.1-2.2-6.1-1.2-3-2.7-5.9-0.7-0.8-1.4-1.6-0.7-0.8-1.4-1.6-0.7-0.7-1.5-1.5-0.7-0.7-1.5-1.5c-5-4.6-10.7-8.8-17.1-11.7-5.7-2.5-11.9-4.1-18.2-4.2z"/><path class="a" d="m347.8 228.4c-1.3 8.3-1.4 17.1 1.5 25 1.9 5.2 5 10 8.8 14.1 2.4 2.7 5.3 5.1 8.5 6.7 3.3 1.5 7.1 2.2 10.7 1.3 3.2-0.8 6.1-2.9 8.2-5.5 2.1-2.7 3.5-5.8 4.5-9 3-9.5 2.5-19.9-0.4-29.3-2.2-7-5.7-13.6-11.3-18.3-2.6-2.2-5.7-4-9-4.8-3.4-0.8-7-0.6-10.2 0.9-3.5 1.5-6.2 4.6-7.9 8-1.8 3.4-2.7 7.1-3.4 10.9z"/><path class="o" d="m365.4 222.4c0.9 2.4 3.9 3.2 5.6 5.1 1.6 1.8 3.3 3.7 4.2 6 1.6 4.4-1.7 10.8 1.8 13.9 1.1 1 3.3 1 4.4 0 4.3-3.8 3.3-11.6 1.6-17.1-1.5-5-5.3-9.7-9.9-12.1-2.1-1.1-5.4-2-7.2-0.4-1.2 1-1 3.2-0.5 4.6z"/><path class="p" d="m332.3 331.9q0.4 1.6 1.3 3.1c0.9 1.6 2.4 2.9 3.9 4.1 1.6 1.1 3.3 2.1 4.9 3.1 8.6 5.4 15.7 13 21.9 21.1 8.4 10.8 15.9 22.9 27.1 30.7 7.9 5.6 17.4 8.7 27 9.7 11.3 1.1 22.7-0.7 33.6-3.9 10.1-3 19.9-7.1 28.9-12.7 17-10.5 31.2-25.9 50-32.8 4.1-1.5 8.4-2.6 12.3-4.4 4-1.9 7.7-4.7 9.6-8.6 1.8-3.8 1.7-8.2 2.3-12.3 0.7-4.5 2.1-8.8 2.9-13.2 0.7-4.4 0.8-9.2-1.1-13.2-1.6-3.4-4.5-6-7.8-7.7-3.3-1.7-7-2.5-10.7-2.7-7.5-0.3-14.8 1.6-22.2 2.2-9.8 0.9-19.7-0.3-29.6 0-12.2 0.3-24.3 3.1-36.5 3.7-14 0.7-27.9-1.5-41.9-2.1-6.1-0.2-12.2-0.1-18.1 0.9-6 1-11.9 3-16.9 6.5-4.8 3.3-8.7 7.9-13.1 11.8-2.3 1.9-4.7 3.7-7.3 5-2.7 1.2-5.6 2-8.6 2-1.5-0.1-3-0.3-4.5 0.2-0.9 0.2-1.7 0.8-2.4 1.5q-0.2 0.2-0.5 0.5-0.2 0.2-0.4 0.5-0.2 0.3-0.4 0.6-0.3 0.3-0.4 0.6-0.5 0.7-0.9 1.4-0.5 0.7-0.9 1.4-0.4 0.7-0.7 1.5-0.4 0.7-0.8 1.5z"/><path class="q" d="m387.2 346.9q-0.5 2.2-0.7 4.5-0.1 2.3 0.2 4.6 0.3 2.2 1.1 4.4 0.7 2.2 1.8 4.2 1.1 2 2.5 3.7 1.5 1.8 3.3 3.3 1.7 1.4 3.7 2.5 2 1.2 4.2 1.9c7.3 2.4 15.6 1.2 22.4-2.3 4-2.1 7.6-5 9.9-8.9q0.4-0.7 0.8-1.5 0.3-0.7 0.6-1.5 0.3-0.8 0.5-1.6 0.2-0.8 0.3-1.7 0.2-0.8 0.2-1.6 0-0.9-0.1-1.7-0.1-0.8-0.3-1.7-0.2-0.8-0.5-1.6-0.3-0.8-0.7-1.6-0.5-0.9-1-1.6-0.5-0.7-1.2-1.4-0.6-0.7-1.3-1.3-0.7-0.6-1.5-1.1-0.7-0.5-1.5-0.9-0.8-0.5-1.7-0.8-0.8-0.4-1.7-0.7c-4.7-1.5-9.7-1.6-14.6-1.3q-2.8 0.1-5.6 0.4-2.7 0.2-5.5 0.5-2.8 0.4-5.5 0.8-2.8 0.5-5.5 1.1"/><path class="r" d="m363.1 300.9c-4.9 2.9-9.7 6.2-14.4 9.5-2.4 1.7-4.9 3.6-6.2 6.3-0.9 1.9-1.1 4.1-1.2 6.2 0 2.1 0.1 4.2-0.1 6.3-0.2 1.4-0.6 2.8-0.7 4.3 0 0.7 0 1.4 0.2 2.1q0.1 0.3 0.2 0.5 0.1 0.3 0.2 0.5 0.2 0.3 0.3 0.5 0.2 0.2 0.3 0.4c0.7 0.7 1.6 1.1 2.5 1.4 0.8 0.3 1.8 0.4 2.7 0.6 4.3 1 8.1 3.7 11.4 6.7 3.4 3 6.3 6.3 9.8 9.2 9.4 7.6 21.8 10.8 33.9 11 12.2 0.2 24.1-2.4 36-5 9.2-2.1 18.5-4.3 27.5-7.6 13.7-5 26.4-12.7 37.5-22.3 5-4.3 9.6-9.1 15.3-12.6 4.9-3.2 10.5-5.2 15.5-8.2 0.5-0.3 0.9-0.5 1.3-0.9q0.2-0.1 0.3-0.2 0.2-0.2 0.3-0.3 0.1-0.2 0.2-0.3 0.1-0.2 0.2-0.4 0.2-0.3 0.3-0.6 0-0.4 0.1-0.7 0-0.3-0.1-0.7 0-0.3-0.1-0.6-0.1-0.4-0.3-0.7-0.1-0.3-0.3-0.6-0.1-0.3-0.3-0.6-0.2-0.2-0.4-0.5-0.3-0.3-0.5-0.6-0.3-0.2-0.6-0.5-0.2-0.3-0.5-0.5-0.3-0.3-0.6-0.5c-5.2-4.5-12.4-6.2-19.3-6.7-6.9-0.6-13.9-0.2-20.8-1.3-6.4-1.1-12.6-3.5-18.8-5.5q-2.4-0.8-4.9-1.5-2.5-0.7-5-1.3-2.5-0.6-5-1.1-2.5-0.5-5-1c-16-2.6-32.3-2.1-48.1 1.2q-5.7 1.2-11.2 2.8-5.5 1.7-10.9 3.8-5.3 2-10.5 4.6-5.2 2.5-10.2 5.4z"/><path class="s" d="m361.6 284.2q-2.7 1.8-5.3 3.8-2.5 1.9-4.9 4.1-2.4 2.2-4.6 4.6-2.2 2.3-4.3 4.8c-3.1 3.8-5.9 8-7.5 12.6-1.2 3.7-1.6 7.6-2.4 11.4-0.3 1.4-0.6 2.9-0.6 4.3q0 1.1 0.3 2.2c0.2 0.6 0.6 1.3 1.1 1.8 0.8 0.9 2 1.4 3.2 1.6 1.1 0.2 2.3 0.3 3.5 0.4 5.4 0.6 10.4 3.2 14.8 6.3 4.5 3.1 8.6 6.7 13.2 9.6 10.1 6.4 22.2 9.2 34.2 9.7 12 0.4 23.9-1.4 35.7-3.7 9.3-1.9 18.6-4.1 27.5-7.6 13.5-5.3 25.8-13.6 37.5-22.3 5.3-4 10.5-8.1 15.3-12.7 1.6-1.5 3.1-3.1 4.9-4.6 1.7-1.4 3.6-2.6 5.8-3.3 3.2-1.1 6.8-0.8 10.2-0.2 2.5 0.4 5.1 1 7.6 0.9q0.5 0 1-0.1 0.5 0 1-0.1 0.4-0.1 0.9-0.3 0.5-0.1 0.9-0.3c1.2-0.5 2.3-1.2 3.1-2.2q0.4-0.5 0.7-1.1 0.3-0.5 0.6-1.1 0.2-0.6 0.3-1.2 0.1-0.7 0.1-1.3 0-0.6-0.1-1.3-0.1-0.6-0.3-1.2-0.2-0.6-0.4-1.2-0.3-0.6-0.6-1.1c-1.7-3-4.7-4.9-7.8-6.3-4.2-1.9-8.8-2.8-13.4-3.9q-5.2-1.3-10.3-2.8-5.1-1.6-10.1-3.4-5.1-1.9-10-4-4.9-2.1-9.7-4.5c-6.4-3.1-12.5-6.6-18.8-10-6.4-3.4-13-6.7-19.9-8.9-15.7-4.7-32.7-3.1-48.1 2.2q-6.4 2.3-12.5 5.3-6.1 3.1-11.7 6.9-5.6 3.9-10.7 8.4-5 4.6-9.4 9.8z"/><path class="t" d="m471.2 287.6q-0.3-0.4-0.7-0.8-0.4-0.3-0.8-0.6-0.4-0.2-0.9-0.5-0.5-0.2-0.9-0.3-0.5-0.1-1-0.2-0.5-0.1-1-0.1-0.5-0.1-1 0-0.6 0-1.1 0.1c-2.6 0.5-5 1.9-7.2 3.4-6.4 4.4-12 9.8-16.8 15.7-6.5 7.9-11.8 16.9-13.6 27-0.3 1.6-0.5 3.4-0.3 5.1 0.2 1.7 0.8 3.4 2.1 4.6 1 1 2.5 1.7 3.9 1.9 1.5 0.2 3.1 0 4.5-0.5 2.8-0.9 5.2-2.9 7.5-4.9 12.3-11.1 23.5-24.4 28-40.3 0.4-1.6 0.8-3.3 0.8-4.9 0-1.7-0.5-3.4-1.5-4.7z"/><path class="u" d="m441.6 264.7c0.9 2.7 5.3 2.2 7.9 3.6 2.2 1.1 4 3.7 6.5 3.7 2.5 0.1 6.2-0.8 6.5-3.2 0.4-3.2-4.2-5.2-7.1-6.3-3.9-1.5-8.8-2.3-12.3-0.3-0.9 0.5-1.8 1.6-1.5 2.5z"/><path class="v" d="m399.3 263.1c-3.3-1.1-8.7 4.7-7 7.7 0.5 0.8 2 1.8 3 1.3 1.5-0.8 2.8-3.8 4.4-5 1.1-0.8 0.9-3.6-0.4-4z"/><path fill-rule="evenodd" class="w" d="m544.3 319.6c-5.8 0-9.9-5.9-9.1-13.1 0.8-7.3 6.2-13.1 12.1-13.1 5.8 0 9.9 5.8 9.1 13.1-0.8 7.2-6.2 13.1-12.1 13.1z"/><g clip-path="url(#cp2)"><path class="x" d="m349.5 200.3c10-5.9 22.1-7.3 33.6-6.2 11.5 1.1 22.7 4.5 33.9 7.5 8.2 2.3 16.5 4.3 24.1 8 7.7 3.6 14.9 8.9 19.1 16.3 0.7 1.2 1.3 2.4 2 3.5 0.7 1.2 1.6 2.3 2.6 3.1 1.1 0.8 2.5 1.4 3.8 1.3 0.7-0.1 1.4-0.2 2-0.6q0.2-0.1 0.4-0.3 0.2-0.1 0.4-0.3 0.2-0.2 0.3-0.4 0.2-0.2 0.3-0.4c0.3-0.7 0.5-1.5 0.4-2.3q0-0.3 0-0.6-0.1-0.3-0.1-0.6-0.1-0.3-0.2-0.6 0-0.2-0.1-0.5c-2.8-10.2-9.4-18.9-14.4-28.2-3-5.6-5.5-11.4-8.5-17-10.5-19.1-27.6-34.1-47.1-43.9-19.5-9.7-41.2-14.4-62.9-15.7-25.2-1.5-50.5 1.5-75.4 5.9-10.7 1.9-21.7 4.1-31.2 9.5-4.8 2.7-9.1 6.1-12.6 10.4-3.4 4.3-5.8 9.4-6.6 14.8-0.7 5.2 0.1 10.6 1.9 15.6 1.8 4.9 4.6 9.4 8 13.5 6.6 8.2 15.2 14.6 23 21.6 7.9 7 15.2 14.8 24 20.6 4.4 2.9 9.1 5.3 14.2 6.8 5.1 1.4 10.5 1.8 15.6 0.7 5.4-1.1 10.4-3.7 14.7-7 4.3-3.4 8.1-7.4 11.6-11.5 7.2-8.3 13.8-17.4 23.2-23z"/></g><path class="a" d="m700.4 555.7c22.5 18.1 36.8 45.5 41.2 74.1 3.5 22.2 1.2 45.1-3.8 67.1-5 22-12.8 43.3-20.5 64.5-3.1 8.4-6.1 17-7.4 25.9-1.2 8.9-0.4 18.3 3.9 26.2 4.9 9.1 14.1 15.3 24 18.3 9.8 2.9 20.3 2.8 30.2 0.4 9.9-2.5 19.1-7.3 27.1-13.6 20.5-15.8 32.8-40.5 37.6-66 4.7-25.4 2.5-51.6-1.9-77.1-6-34.8-16.2-68.7-29.2-101.5-9.5-24.2-20.7-47.9-36.3-68.6-15.2-20.3-34.4-37.4-49.4-58-10.4-14.2-18.7-30.1-31.1-42.7-6.2-6.2-13.5-11.6-21.7-14.8-8.2-3.1-17.5-4.1-26-1.7-11.2 3.2-20.3 12-25.2 22.5-4.8 10.6-5.7 22.7-3.8 34.2 2.5 14.8 9.2 28.5 16.9 41.4 8.6 14.6 18.6 28.7 31.6 39.5 13.6 11.3 30 18.8 43.8 29.9z"/><g clip-path="url(#cp3)"><path class="y" d="m647.3 520.7c1.8 1.8 3.7 3.5 5.7 5.1 13.8 11.3 21.2 24 35.2 35.1 22.9 18.2 46.2 49.4 50.7 78 3.5 22.3-1.1 34.4-6.8 60.7-5.7 26.3-21.7 63.6-30.4 88.9-3.5 10.1 7 6 5.6 16.6q-0.2 2-0.4 3.9-0.1 2-0.1 4-0.1 2 0 3.9 0.2 2 0.4 4c0.1-1 0.1-2.1 0.2-3.1 1.7-14.5 6.2-28.5 11-42.2 9.3-26.4 20.1-52.2 27.4-79.3 7.4-27 6.6-46.5 2.7-69.8-4.8-29.2-21.8-56.2-45.9-74.1-17.1-12.6-37.2-20.6-55.3-31.7z"/></g><path class="z" d="m295.9 504.3c3.8 5.7-2.3 25.1 85.4 12.7 0 0-15.4 1.7-30.6 5.2-23.6 7.9-44.2 16.7-60 28.4-15.8 11.6-27.3 26.7-41.7 39.6 0 0 23.4-42.6 29.2-55.5 5.8-12.8-1-12.2 3.6-31.1 4.6-19 15.9-37.1 15.9-37.1 0 0-9.2 26.7-1.8 37.8z"/><path class="A" d="m577.9 499.2c-17.8 12.5-28.3 11-50 13.4-21.7 2.5-80.4 1.6-80.4 1.6 0 0 8.5-0.2 27.3 3.4 18.9 3.5 57.3 6.8 78.9 15 21.6 8.3 29.5 10.6 42.7 18.9 18.7 11.9 32.4 30.4 50.3 43.4 0 0 0.9-17.2-6.3-30.1-7.3-12.8-26.7-33.1-32.4-52-5.7-18.9-8.4-56-8.4-56 0 0-3.8 30-21.7 42.4z"/><path class="B" d="m409.8 472.6q-0.2 2.1-0.5 4.1-0.3 2-0.6 4-0.3 2-0.7 4-0.4 2-0.8 4c-0.5 2.7-1 5.3-2 7.8-1 2.5-2.4 4.9-4.4 6.6-1.7 1.6-3.9 2.7-6 3.7q-3.1 1.4-6.4 2.6-3.2 1.2-6.5 2.1-3.3 1-6.7 1.6-3.3 0.7-6.7 1.2 5.4 0.4 10.8 0.9c2.3 0.3 4.6 0.6 6.8 1.1 2.2 0.6 4.4 1.5 6.3 2.8 2 1.5 3.6 3.6 4.8 5.8 2.3 4.4 3.1 9.5 3.6 14.5 0.5 6.3 0.6 12.8 0.1 19.2 0.4-4.3 1.3-8.5 2.7-12.6 2.4-7.4 6.3-14.3 11.5-20 2.1-2.2 4.4-4.3 6.9-6.1q2.9-2 6.1-3.5 3.3-1.4 6.7-2.3 3.4-0.8 7-1 3.5-0.2 7 0.3-3.5 0.1-7.1-0.3-3.5-0.5-6.9-1.5-3.4-1.1-6.6-2.7-3.2-1.6-6-3.8c-3.9-2.9-7.3-6.5-9.6-10.7q-1.3-2.5-2.2-5.2-0.9-2.7-1.2-5.4-0.4-2.8-0.2-5.6 0.1-2.8 0.8-5.6z"/><path class="C" d="m387 598.7q-1.7 6.5-3.2 13.1-1.4 6.6-2.6 13.2-1.2 6.6-2.1 13.3-0.9 6.6-1.5 13.3c-2.3 25.3-1.8 50.7-3.1 76-1.2 21.5-3.7 43.2 0 64.3q0.7 3.8 1.6 7.6 1 3.7 2.1 7.4 1.2 3.6 2.7 7.2 1.4 3.6 3.1 7 1.1-5.3 1.6-10.6c1.5-17.2-1.4-34.4-2.3-51.7-1.7-30.1 2.4-60.3 4.1-90.5 1.3-23.2 1.2-46.4-0.4-69.6z"/><path class="D" d="m595.1 338.6c-8 7.3 3.8 18.3 9.3 31.2 3.5 8 13.1 19.2 22.4 17.4 7-1.3 11.3-11.4 10.6-18.4-1.2-13.7-12.8-16.9-21.1-21.6-6.7-3.7-15.6-13.7-21.2-8.6z"/><path class="E" d="m852.1 936q-0.7 2.2-1.5 4.3-0.8 2.1-1.8 4.2-1 2-2.1 4-1.2 2-2.4 3.9c-7.6 11.1-18.5 19.5-29.4 27.3-18.7 13.2-38.1 25.3-55.4 40.3-11.6 10.1-22.2 21.3-32.1 33.2-8.4 10.2-16.3 20.8-25.8 29.9-9.7 9.1-21.1 16.4-33.3 20.4-14.9 4.9-30.7 4.7-45 1-10.1-2.6-19.9-7.1-26.1-15.2-6.3-8.1-8.3-19.1-9-29.8-1.3-19 1-38.4 3-57.7 1.7-16 3.3-32.1 4-48 1.1-29.1-0.8-58-4.7-86.3-0.7-4.7-1.4-9.5-1-14.4 0.4-4.8 2-9.9 5.5-13.7 3.1-3.5 7.5-5.5 11.9-6.5 4.5-1 8.9-1.1 13.3-1.2 10.5-0.3 20.9-0.9 31.2 0 6.5 0.6 12.8 1.8 19.3 2.4 10.8 1 22 0.5 32.8-2.7 11.7-3.4 22.8-9.8 34.6-11.6q1.8-0.2 3.6-0.4 1.9-0.1 3.7-0.1 1.8 0 3.6 0.1 1.8 0.2 3.6 0.4c4.8 0.7 9.6 2 13.3 5 2.8 2.2 4.9 5.3 6.5 8.6 2.4 4.8 3.9 10.2 4.7 15.8 0.8 4.8 1 9.9 2.3 14.6 2.1 7.8 6.8 14.4 12.4 19.8 5.7 5.4 12.3 9.6 18.9 13.8 6.6 4.2 13.2 8.3 20.2 11.8 3.3 1.6 6.7 3.1 9.9 4.9 3.1 1.9 6 4.2 8.1 7.2 2.9 4.1 4 9.5 3.2 14.7z"/><g clip-path="url(#cp4)"><path class="F" d="m926 949.9q-1 2.4-2.1 4.7-1.1 2.3-2.4 4.5-1.3 2.2-2.8 4.3-1.5 2.1-3.2 4c-9.7 11.6-23.2 19.2-36.6 26-22.9 11.7-46.7 22-68.3 36-14.4 9.5-27.7 20.5-40.2 32.4-10.6 10.2-20.8 21.1-32.7 29.7-12.1 8.7-26 15-40.7 17.2-17.9 2.7-36.4-0.7-53-8-11.6-5-22.8-12.3-29.5-23-6.7-10.9-8.2-24.1-8.3-36.8 0-22.5 4.2-44.8 8.1-67 3.3-18.4 6.4-36.8 8.4-55.4 3.6-33.8 3.6-68 1.2-101.9-0.4-5.7-0.9-11.5-0.1-17.1 0.9-5.6 3.2-11.2 7.5-15 4-3.4 9.4-4.9 14.6-5.2 5.3-0.3 10.5 0.5 15.7 1.3 12.3 1.8 24.7 3.2 36.7 6.4 7.5 2 14.9 4.6 22.5 6.7 12.6 3.4 25.8 5 38.7 3.5 14-1.6 27.6-6.9 41.6-6.5 5.8 0.1 11.5 1.2 17 2.9 5.6 1.8 11.1 4.3 15.3 8.5 3.1 3.2 5.3 7.2 6.9 11.4 2.5 6.2 3.8 12.8 4.3 19.4 0.5 5.9 0.5 11.9 1.6 17.7 1.8 9.5 6.8 18.2 13.1 25.7 6.2 7.4 13.6 13.7 21.1 20 7.4 6.2 14.8 12.4 22.8 17.9 3.7 2.5 7.6 4.9 11.2 7.7 3.5 2.9 6.8 6.2 9 10.1q1.2 2 1.9 4.2 0.7 2.2 1.1 4.5 0.3 2.3 0.2 4.6-0.1 2.3-0.6 4.6z"/></g><g clip-path="url(#cp5)"><path class="G" d="m914.4 938.2q-0.8 2.2-1.9 4.2-1 2.1-2.2 4.1-1.2 2-2.5 3.9-1.4 1.8-2.9 3.6c-8.9 10.4-21.2 17.2-33.5 23.4-20.9 10.5-42.6 19.7-62.3 32.3-13.2 8.5-25.3 18.4-36.7 29.1-9.8 9.2-19 19-29.9 26.7-11 7.9-23.8 13.6-37.2 15.5-16.3 2.4-33.2-0.7-48.4-7.2-10.5-4.5-20.8-11-26.9-20.7-6.1-9.7-7.5-21.6-7.5-33.1-0.1-20.2 3.7-40.2 7.3-60.2 3-16.5 5.9-33.1 7.7-49.8 3.3-30.4 3.1-61.1 1.1-91.7-0.4-5.1-0.8-10.2 0-15.3 0.8-5.1 2.9-10.1 6.8-13.4 3.6-3.2 8.5-4.5 13.3-4.8 4.8-0.3 9.6 0.5 14.3 1.2 11.2 1.7 22.5 2.9 33.5 5.7 6.9 1.8 13.6 4.2 20.5 6.1 11.5 3 23.6 4.5 35.4 3.1 12.8-1.4 25.2-6.2 38-5.8 5.3 0.1 10.5 1.1 15.5 2.6 5.1 1.6 10.2 3.9 14 7.7 2.8 2.8 4.8 6.5 6.3 10.2 2.3 5.5 3.8 11.5 4 17.5 0.1 6.2-1.3 12.5-0.4 18.8 0.7 5 2.8 9.8 5.5 14.1 2.8 4.3 6.1 8.2 9.4 12.1 6.3 7.5 12.7 15.1 20.7 20.9 9.1 6.6 19.9 10.4 29.2 16.5 2.8 1.9 5.5 3.9 7.5 6.6q1.2 1.8 2 3.7 0.8 2 1.1 4.1 0.3 2.1 0.1 4.2-0.2 2.1-0.9 4.1z"/></g><g clip-path="url(#cp6)"><path class="H" d="m913.1 931.7q-0.9 2.2-2 4.3-1.1 2.1-2.4 4.1-1.2 2-2.5 3.9-1.4 1.9-2.9 3.7c-9.1 11.1-21.4 18.7-34.4 23.6-21.3 8.1-44.6 9.1-65.6 18.3-12.7 5.6-24.2 14.1-35.9 22-9.4 6.5-19 12.7-29.3 17.2-11.7 5.1-24.1 7.9-36.5 9.9-8 1.3-16 2.2-24 1.8-8-0.5-16-2.3-23-6.4-5.4-3.1-10.2-7.6-13.1-13.3-3.1-6.5-3.7-14-3.6-21.3 0.2-19.3 4.3-38.5 4.2-57.9-0.1-16.9-3.5-33.5-4.4-50.4-1.9-32.4 5.1-65.3-1-97.1-1-5.1-2.3-10.1-2.3-15.3q0-1 0.1-2 0.1-0.9 0.3-1.9 0.1-1 0.4-1.9 0.2-0.9 0.6-1.8c0.9-2.4 2.4-4.6 4.3-6.1 1.7-1.3 3.6-2.1 5.6-2.4q0.8-0.2 1.5-0.2 0.8-0.1 1.5-0.1 0.8 0 1.6 0.1 0.7 0.1 1.5 0.2c4 0.6 7.8 2.2 11.7 3.3 11.2 3.4 23 3.3 34.4 5.8 7.1 1.6 14 4.2 21.1 6.1 11.9 3.3 24.2 4.6 36.4 3.2 13.1-1.5 25.8-6.3 39-5.9 5.4 0.1 10.7 1.1 15.9 2.7 5.2 1.5 10.4 3.7 14.3 7.7 2.9 2.9 4.9 6.5 6.6 10.3 2.4 5.5 4.1 11.5 4 17.7 0 3.1-0.5 6.3-0.8 9.5-0.2 3.1-0.3 6.4 0.4 9.4 0.8 3.1 2.4 5.9 4.2 8.4 1.8 2.6 3.9 4.9 5.7 7.4 5.3 6.9 9.1 15 13.2 22.7 4.1 7.8 8.6 15.5 15.1 21.1 8.8 7.7 20.2 10.7 30.1 16.7 2.8 1.8 5.6 3.9 7.6 6.7 1.7 2.3 2.7 5 3.2 7.8 0.4 2.8 0.1 5.8-0.8 8.4z"/></g><path class="I" d="m634.5 797.2c12.1-3.3 22.4 5.9 31.2 12.8 5.7 4.9 13.9 3.7 20.9 3.9 11.6-0.4 23.1 1.9 34.6 0.5 22.8-1.9 45.1-7.5 68-8.5 10.9-0.7 23.2-1.3 32.6 5.1 3.8 2.6 9.4 13.8 13.2 9.6-1.5-11.7-10.3-23.1-22-26.3-9.2-1.4-18.5 1.1-27.7 0.3-27.5-0.7-54.8-5.8-82.4-4.3-19.2 0.2-38.3-0.7-57.5-1.5-7.5-1.5-10.1 5.2-14.2 7.7"/><path class="J" d="m688.9 573.3c4.4-0.6 31.5 22.5 27.8 31-3.7 8.6-10.7 3.4-15.7 3.5-5 0-18.6 6.2-20.9 2.3-2.3-3.9 6-13 10.4-20.6 3.5-6.2-6-15.5-1.6-16.2z"/><path class="K" d="m305.8 428.1c-0.5-5.4-8.1-6.2-11.5-3.5-2.8 2.2-5.5 9.9-3 12.9 4 4.8 15.1-2.2 14.5-9.4z"/><path class="L" d="m798.1 815.7c-2.1-4.1-5.9-7.2-10.1-8.9-4.2-1.8-8.9-2.4-13.5-2.3-9.2 0-18.3 2.4-27.4 1.6-7.7-0.6-15-3.5-22.6-5.4-7.7-1.9-16-2.6-23.7-0.5-8.2 2.3-15.5 7.8-20.1 15-4 6.4-5.9 13.9-6.5 21.4-0.6 7.5 0.1 15.1 0.8 22.6 0.6 5.4 1.2 10.8 2.5 16.1 1.3 5.3 3.4 10.5 6.5 14.9 4.6 6.3 11.5 10.9 18.8 13.6q4.5 1.6 9.3 2.4 4.7 0.8 9.6 0.8 4.8-0.1 9.5-1.1 4.7-1 9.2-2.8c20.9-9.1 38.7-25.4 49.5-45.5q1.4-2.7 2.7-5.5 1.3-2.8 2.4-5.7 1.1-2.8 2-5.7 1-3 1.7-6c0.8-3.1 1.4-6.3 1.4-9.6 0-3.2-0.5-6.5-2-9.4z"/><path class="M" d="m798.1 811.4c-2.1-3-5.9-5.2-10.1-6.4-4.2-1.3-8.9-1.7-13.5-1.7-9.2 0-18.3 1.8-27.4 1.2-7.7-0.5-15-2.6-22.6-3.9-7.7-1.4-16-1.9-23.7-0.4-8.2 1.6-15.5 5.6-20.1 10.8-4 4.7-5.9 10.1-6.5 15.5-0.6 5.5 0.1 10.9 0.8 16.3 0.6 4 1.2 7.9 2.5 11.7 1.3 3.8 3.4 7.6 6.5 10.8 4.6 4.6 11.5 7.8 18.8 9.8q4.5 1.2 9.3 1.8 4.7 0.5 9.6 0.5 4.8-0.1 9.5-0.8 4.7-0.7 9.2-2c20.9-6.6 38.7-18.4 49.5-32.9q1.4-2 2.7-4 1.3-2 2.4-4.1 1.1-2 2-4.2 1-2.1 1.7-4.2c0.8-2.3 1.4-4.6 1.4-7 0-2.3-0.5-4.7-2-6.8z"/><path class="a" d="m815.5 777.5c-1.5-4.1-4.1-7.7-7.4-10.7-3.2-2.9-7-5.1-11-6.8-8-3.4-16.8-4.7-25.3-6.3-8.1-1.5-16.1-3.4-24.2-4.7-8.4-1.5-17.1-2.4-25.4-0.5-7.3 1.6-14 5.4-19.6 10.4-5.5 5.1-9.8 11.4-12.9 18.1-5.4 12-7.1 25.5-6.1 38.6 0.8 9.7 3.2 19.8 9.7 27.2 5.2 5.9 12.5 9.7 20.1 11.9q4.9 1.4 10 2.1 5 0.7 10.2 0.7 5.1-0.1 10.1-1 5.1-0.8 9.9-2.4 8-2.7 15.5-6.6 7.5-4 14.3-9.1 6.7-5.1 12.6-11.2 5.9-6 10.7-13c4.2-6.1 7.8-12.8 9.5-20 1.2-5.5 1.3-11.4-0.7-16.7z"/><g clip-path="url(#cp7)"><path class="N" d="m726.7 744.6c-2 0.1-4 0.3-6 0.7-12.9 2.3-24.6 10.4-31.3 21.6q-1.7 3-3 6.2-1.3 3.3-2 6.6-0.8 3.4-1.1 6.8-0.2 3.5 0 6.9c0.3-6.4 2-12.7 5.1-18.4 5.3-9.5 14.9-16.7 25.7-18.7 6.6-1.2 13.5-0.5 20.1 0.3 6.5 0.8 12.9 1.7 19.3 3 9.7 2.2 19.4 5.4 27.6 11.2 1.9 1.3 3.7 2.8 5.2 4.6 1.5 1.8 2.7 3.8 3.2 6.1 0.6 3.4-0.3 6.9-2 9.9-1.7 2.9-3.9 5.5-6.4 8q-0.7 0.7-1.5 1.4-0.7 0.7-1.5 1.4-0.8 0.7-1.5 1.4-0.8 0.7-1.6 1.4c9.5-1.8 19.1-4.4 27-9.9 3.3-2.4 6.3-5.2 8.3-8.7 2-3.6 2.8-7.9 1.9-11.8-0.7-2.7-2.2-5.1-4-7.2-1.8-2.1-4-3.7-6.2-5.3q-3.8-2.6-7.8-4.8-4-2.1-8.2-3.7-4.3-1.6-8.7-2.7-4.4-1.1-8.9-1.7-2.9-0.5-5.8-1-2.9-0.5-5.8-0.9-2.9-0.5-5.8-0.9-2.9-0.4-5.9-0.8c-6.1-0.7-12.3-1.3-18.4-1z"/></g><g clip-path="url(#cp8)"><path class="O" d="m726.7 744.6c-2 0.1-4 0.3-6 0.7-12.9 2.3-24.6 10.4-31.3 21.6q-1.7 3-3 6.2-1.3 3.3-2 6.6-0.8 3.4-1.1 6.8-0.2 3.5 0 6.9c0.3-6.4 2-12.7 5.1-18.4 5.3-9.5 14.9-16.7 25.7-18.7 6.6-1.2 13.5-0.5 20.1 0.3 6.5 0.8 12.9 1.7 19.3 3 9.7 2.2 19.4 5.4 27.6 11.2 1.9 1.3 3.7 2.8 5.2 4.6 1.5 1.8 2.7 3.8 3.2 6.1 0.6 3.4-0.3 6.9-2 9.9-1.7 2.9-3.9 5.5-6.4 8q-0.7 0.7-1.5 1.4-0.7 0.7-1.5 1.4-0.8 0.7-1.5 1.4-0.8 0.7-1.6 1.4c9.5-1.8 19.1-4.4 27-9.9 3.3-2.4 6.3-5.2 8.3-8.7 2-3.6 2.8-7.9 1.9-11.8-0.7-2.7-2.2-5.1-4-7.2-1.8-2.1-4-3.7-6.2-5.3q-3.8-2.6-7.8-4.8-4-2.1-8.2-3.7-4.3-1.6-8.7-2.7-4.4-1.1-8.9-1.7-2.9-0.5-5.8-1-2.9-0.5-5.8-0.9-2.9-0.5-5.8-0.9-2.9-0.4-5.9-0.8c-6.1-0.7-12.3-1.3-18.4-1z"/></g><path class="a" d="m305.5 403.7q-3.9 4.8-7.8 9.6-3.8 4.9-7.7 9.7-3.8 4.8-7.7 9.7-3.9 4.8-7.7 9.6c-10.6 13.3-21.1 26.6-31.8 39.9-13.1 16.2-26.5 32.5-35 51.6-7.3 16.3-10.8 34.1-15.8 51.3-5.7 19.5-13.4 38.4-22.1 56.8-8 17-16.9 33.6-25.7 50.1-6.5 12.1-13 24.4-15.3 37.9-1.7 10.6-0.7 21.6 2 32.1 2.7 10.4 7.1 20.4 12 30 21 41 52.5 76.4 89.8 103.4q6.4 4.7 12.9 8.9 6.6 4.3 13.4 8.3 6.8 3.9 13.7 7.6 7 3.6 14.1 6.8c10.3 4.7 21.2 8.9 32.5 9.1 5.7 0.1 11.4-0.8 16.6-3.1 5.2-2.3 9.8-5.9 12.9-10.7 3.8-5.8 5.1-13.1 4.3-20-0.8-6.9-3.5-13.5-7.1-19.5-8.8-14.5-22.8-25-36.3-35.4-29-22.5-57.1-46.3-84-71.3-7.6-7.1-15.2-14.4-20.5-23.3-5.2-8.7-7.9-18.6-9.8-28.5-5.2-27.2-3.9-55.9 5.4-82 3.6-10.2 8.4-20 13-29.8 8-17 15.6-34.3 26.1-49.8 13.1-19.4 30.6-35.8 41.3-56.6 9-17.6 12.7-37.4 16.2-56.8q4.1-22.8 8.1-45.6z"/><g clip-path="url(#cp9)"><path class="P" d="m245.6 551.3q-3.2 3-6.3 6.2-3 3.1-5.7 6.5-2.8 3.5-5.3 7-2.5 3.6-4.8 7.4c-9.9 16.5-15.7 35.1-22.9 52.9-5.3 13.3-11.5 26.7-12.3 41-0.4 7.3 0.7 14.7 1 22 0.2 7.4-0.5 15-4.1 21.5q-1.1 2-2.6 3.7-1.5 1.8-3.2 3.3-1.8 1.5-3.8 2.7-2 1.1-4.2 1.9 2.9 1 5.7 2.4 2.8 1.4 5.3 3.3 2.5 1.8 4.7 4 2.2 2.1 4.1 4.6c4.1 5.6 6.7 12.1 10.3 18 2.9 4.8 6.5 9.3 10.9 12.7 4.4 3.5 9.7 6 15.3 6.8q2.9 0.3 5.7 0 2.9-0.2 5.7-1.1 2.8-0.9 5.3-2.4 2.5-1.4 4.6-3.4c-1.7-16.7-2.7-33.5-2.8-50.3 0-16.8 0.7-33.5 2.3-50.3 1.6-16.7 4.1-33.3 7.3-49.8 3.3-16.5 7.4-32.8 12.3-48.9 1.3-4 2.6-8.1 2.9-12.3 0.3-4.3-0.5-8.7-3.1-12.1q-0.5-0.7-1.1-1.3-0.6-0.6-1.3-1.1-0.6-0.5-1.4-0.9-0.7-0.5-1.5-0.8-0.8-0.3-1.6-0.6-0.8-0.2-1.6-0.3-0.9-0.1-1.7-0.1-0.9 0-1.7 0.1-0.9 0.1-1.7 0.3-0.8 0.2-1.6 0.5-0.8 0.3-1.5 0.7-0.8 0.4-1.4 0.9c-1.9 1.4-3.3 3.2-4.2 5.3z"/></g><g clip-path="url(#cp10)"><path class="Q" d="m153.9 761.5c5.9-2.5 12.6-2.9 18.9-1.7 6.3 1.1 12.2 3.9 17.6 7.5 10.6 7.2 18.4 17.7 26 28 17.3 23.9 33.9 48.2 49 73.5 12.3 20.5 23.5 41.7 37.7 60.9 9.2 12.6 19.6 24.3 28.9 36.8 9.3 12.5 17.5 26.1 21.7 41.2 5.3 19.5 3.2 41.1-6.1 59.1-6.5 12.6-16.6 23.5-28.8 30.9-12.2 7.3-26.5 11.1-40.8 10.6-22.6-0.9-43.3-12.2-64.4-20.6-42.9-17.1-89.5-22.4-133.7-35.7-13.6-4.1-26.9-9-40.6-12.7-6.1-1.7-12.3-3.2-18-5.8-5.8-2.6-11.1-6.4-14.3-11.9-2.5-4.2-3.5-9.1-3.5-14 0.1-4.9 1.2-9.7 2.9-14.3 3.3-9.1 8.7-17.4 12.3-26.5 5.9-14.8 7-31.1 6.2-47-0.8-15.8-3.4-31.6-4.5-47.5-0.5-7.1-0.7-14.3 0.7-21.2 1.4-7 4.4-13.8 9.5-18.8 4.7-4.5 11-7.2 17.4-8.5 6.4-1.4 13-1.4 19.5-1.3 6.6 0.2 13.2 0.5 19.7 0 6.5-0.6 13.1-2 18.8-5.3 5.4-3.1 9.8-7.7 13.5-12.7 3.6-5 6.6-10.5 9.6-16 3.1-5.4 6.2-10.8 10.2-15.6 4-4.8 8.8-9 14.6-11.4z"/><path class="R" d="m163.3 771.7c5.4-2.1 11.4-2.4 17.1-1.1 5.7 1.3 10.9 4 15.5 7.6 9.2 7.1 15.6 17.1 21.7 26.9 14.7 23.8 29.1 47.9 42.7 72.5 10.2 18.5 20 37.4 32.7 54.4 8.4 11.2 17.9 21.6 26.5 32.7 8.6 11.1 16.2 23.3 20 36.8 4.9 17.4 2.9 36.7-5.6 52.7q-2.2 4.3-5.1 8.3-2.9 4-6.2 7.5-3.4 3.5-7.2 6.5-3.9 3.1-8.1 5.5-4.2 2.5-8.7 4.3-4.6 1.9-9.3 3-4.7 1.2-9.6 1.7-4.9 0.5-9.7 0.3c-20.8-1-39.7-11.3-59.2-18.4-37.5-13.6-78-15.4-116.4-26-13.8-3.7-27.2-8.7-41-12.2-6.1-1.5-12.4-2.8-18.2-5.2-5.8-2.5-11.3-6.3-14.4-11.8-2.4-4-3.3-8.8-3.2-13.5 0.2-4.7 1.4-9.3 3-13.7 3.4-8.8 8.6-16.7 12-25.4 5.1-13.3 5.8-27.8 4.8-42-0.9-14.2-3.4-28.2-4.3-42.4-0.4-6.3-0.4-12.7 0.9-18.9 1.2-6.2 4-12.3 8.5-16.7 4.9-4.9 11.6-7.5 18.4-8.6 6.8-1 13.7-0.5 20.6 0.1 6.8 0.6 13.7 1.4 20.6 0.9 6.9-0.4 13.8-2 19.5-5.9 5.2-3.5 9.1-8.6 12-14.1 3-5.4 5.1-11.3 7.3-17.1 2.3-5.8 4.7-11.5 8.3-16.7 3.5-5.1 8.3-9.6 14.1-12z"/><path class="S" d="m158.2 758.3c5.3-2.6 11.4-3.2 17.1-2 5.8 1.2 11.1 4 15.6 7.6 9 7.4 14.7 17.8 20.1 28 12.2 23.5 23.6 47.5 38.3 69.6 10.6 16 22.8 31 33.6 46.9 14.6 21.7 26.4 45.5 31.3 71 3.3 17.1 3.2 35.7-5.1 51.1-5.4 10.2-14.2 18.5-24.6 23.8-10.5 5.2-22.4 7.3-34.1 6.3-18.3-1.6-35-10.7-52.3-17-30.6-11.1-63.8-13.8-95.3-22.2-13.3-3.6-26.3-8.1-39.8-11-6-1.2-12-2.1-17.7-4.3-5.7-2.1-11.1-5.7-14-10.9-2-3.7-2.7-8-2.4-12.2 0.3-4.2 1.5-8.3 3.2-12.2 3.3-7.7 8.1-14.9 10.7-22.9 3.8-11.8 2.2-24.6-0.6-36.6-2.8-12-6.9-23.9-8.1-36.2-0.6-5.4-0.6-11 0.7-16.4 1.2-5.4 3.8-10.5 7.8-14.4 5.1-4.9 12.4-7.4 19.5-8.1 7.2-0.7 14.5 0.3 21.6 1.3 7.2 1 14.3 2.2 21.5 1.8 7.3-0.3 14.6-2.2 20.3-6.6 5.5-4.4 9-10.9 11.1-17.6 2-6.7 2.6-13.8 3.5-20.7 0.8-7 1.8-14 4.5-20.5 2.7-6.5 7.3-12.5 13.6-15.6z"/><path class="T" d="m223.6 816.9c9.7 17.4 15.6 37.5 25.2 55.1 8.8 16.2 18.8 32.9 27.7 47.8 4 6.6 13.3 16.9 22.7 32.7 8.5 14.4 17.1 34.5 21.9 41.2-2.7-7.9-8.4-29.1-15.2-44.2-6.3-14.1-13.7-22.1-18.2-29.7-9-14.9-18.6-28.4-27.8-42.6-12.7-19.6-22.4-41.6-36.3-60.3z"/></g></svg>